HIERARCHY
ROOT Character1_Hips
{
  OFFSET 0.175268 14.2608 0.0539357
  CHANNELS 6 Xposition Yposition Zposition Zrotation Xrotation Yrotation
  JOINT Character1_LeftUpLeg
  {
    OFFSET 1.33984 -0.942851 0
    CHANNELS 6 Xposition Yposition Zposition Zrotation Xrotation Yrotation
    JOINT Character1_LeftLeg
    {
      OFFSET 1.03111 -5.48941 0.514162
      CHANNELS 6 Xposition Yposition Zposition Zrotation Xrotation Yrotation
      JOINT Character1_LeftFoot
      {
        OFFSET 0.584472 -7.37543 -1.61388
        CHANNELS 6 Xposition Yposition Zposition Zrotation Xrotation Yrotation
        JOINT Character1_LeftToeBase
        {
          OFFSET 0.308451 -0.815752 3.43202
          CHANNELS 6 Xposition Yposition Zposition Zrotation Xrotation Yrotation
          End Site
          {
            OFFSET 0 0 0
          }
        }
      }
    }
  }
  JOINT Character1_RightUpLeg
  {
    OFFSET -1.33984 -0.942851 0
    CHANNELS 6 Xposition Yposition Zposition Zrotation Xrotation Yrotation
    JOINT Character1_RightLeg
    {
      OFFSET -1.03111 -5.48941 0.514162
      CHANNELS 6 Xposition Yposition Zposition Zrotation Xrotation Yrotation
      JOINT Character1_RightFoot
      {
        OFFSET -0.584472 -7.37543 -1.61389
        CHANNELS 6 Xposition Yposition Zposition Zrotation Xrotation Yrotation
        JOINT Character1_RightToeBase
        {
          OFFSET -0.308452 -0.815752 3.43202
          CHANNELS 6 Xposition Yposition Zposition Zrotation Xrotation Yrotation
          End Site
          {
            OFFSET 0 0 0
          }
        }
      }
    }
  }
  JOINT Character1_Spine
  {
    OFFSET 0 1.05262 0
    CHANNELS 6 Xposition Yposition Zposition Zrotation Xrotation Yrotation
    JOINT Character1_Spine1
    {
      OFFSET 0 2.01813 0
      CHANNELS 6 Xposition Yposition Zposition Zrotation Xrotation Yrotation
      JOINT Character1_Spine2
      {
        OFFSET 0 2.01813 0
        CHANNELS 6 Xposition Yposition Zposition Zrotation Xrotation Yrotation
        JOINT Character1_LeftShoulder
        {
          OFFSET 1.05263 2.25701 0
          CHANNELS 6 Xposition Yposition Zposition Zrotation Xrotation Yrotation
          JOINT Character1_LeftArm
          {
            OFFSET 1.59242 -0.163557 -0.172858
            CHANNELS 6 Xposition Yposition Zposition Zrotation Xrotation Yrotation
            JOINT Character1_LeftForeArm
            {
              OFFSET 4.24537 -1.878 -0.32539
              CHANNELS 6 Xposition Yposition Zposition Zrotation Xrotation Yrotation
              JOINT Character1_LeftHand
              {
                OFFSET 2.98616 -1.3058 0.326143
                CHANNELS 6 Xposition Yposition Zposition Zrotation Xrotation Yrotation
                JOINT Character1_LeftHandThumb1
                {
                  OFFSET 0.707167 -0.296378 0.777353
                  CHANNELS 6 Xposition Yposition Zposition Zrotation Xrotation Yrotation
                  JOINT Character1_LeftHandThumb2
                  {
                    OFFSET 0.248522 -0.159515 0.33158
                    CHANNELS 6 Xposition Yposition Zposition Zrotation Xrotation Yrotation
                    JOINT Character1_LeftHandThumb3
                    {
                      OFFSET 0.259195 -0.254061 0.227961
                      CHANNELS 6 Xposition Yposition Zposition Zrotation Xrotation Yrotation
                      JOINT Character1_LeftHandThumb4
                      {
                        OFFSET 0.226666 -0.258213 0.206783
                        CHANNELS 6 Xposition Yposition Zposition Zrotation Xrotation Yrotation
                        End Site
                        {
                          OFFSET 0 0 0
                        }
                      }
                    }
                  }
                }
                JOINT Character1_LeftHandIndex1
                {
                  OFFSET 1.48444 -0.35419 0.611986
                  CHANNELS 6 Xposition Yposition Zposition Zrotation Xrotation Yrotation
                  JOINT Character1_LeftHandIndex2
                  {
                    OFFSET 0.504725 -0.451988 0.0493916
                    CHANNELS 6 Xposition Yposition Zposition Zrotation Xrotation Yrotation
                    JOINT Character1_LeftHandIndex3
                    {
                      OFFSET 0.296443 -0.265513 0.0299121
                      CHANNELS 6 Xposition Yposition Zposition Zrotation Xrotation Yrotation
                      JOINT Character1_LeftHandIndex4
                      {
                        OFFSET 0.197651 -0.217277 0.0208591
                        CHANNELS 6 Xposition Yposition Zposition Zrotation Xrotation Yrotation
                        End Site
                        {
                          OFFSET 0 0 0
                        }
                      }
                    }
                  }
                }
                JOINT Character1_LeftHandMiddle1
                {
                  OFFSET 1.48537 -0.317032 0.21268
                  CHANNELS 6 Xposition Yposition Zposition Zrotation Xrotation Yrotation
                  JOINT Character1_LeftHandMiddle2
                  {
                    OFFSET 0.67206 -0.620936 0.0176343
                    CHANNELS 6 Xposition Yposition Zposition Zrotation Xrotation Yrotation
                    JOINT Character1_LeftHandMiddle3
                    {
                      OFFSET 0.264032 -0.321119 0.00884266
                      CHANNELS 6 Xposition Yposition Zposition Zrotation Xrotation Yrotation
                      JOINT Character1_LeftHandMiddle4
                      {
                        OFFSET 0.180854 -0.241265 0.00658419
                        CHANNELS 6 Xposition Yposition Zposition Zrotation Xrotation Yrotation
                        End Site
                        {
                          OFFSET 0 0 0
                        }
                      }
                    }
                  }
                }
                JOINT Character1_LeftHandRing1
                {
                  OFFSET 1.48599 -0.345215 -0.172738
                  CHANNELS 6 Xposition Yposition Zposition Zrotation Xrotation Yrotation
                  JOINT Character1_LeftHandRing2
                  {
                    OFFSET 0.522197 -0.611355 0.0123874
                    CHANNELS 6 Xposition Yposition Zposition Zrotation Xrotation Yrotation
                    JOINT Character1_LeftHandRing3
                    {
                      OFFSET 0.273491 -0.359549 0.00739157
                      CHANNELS 6 Xposition Yposition Zposition Zrotation Xrotation Yrotation
                      JOINT Character1_LeftHandRing4
                      {
                        OFFSET 0.175076 -0.230164 0.0047308
                        CHANNELS 6 Xposition Yposition Zposition Zrotation Xrotation Yrotation
                        End Site
                        {
                          OFFSET 0 0 0
                        }
                      }
                    }
                  }
                }
                JOINT Character1_LeftHandPinky1
                {
                  OFFSET 1.45006 -0.450851 -0.482264
                  CHANNELS 6 Xposition Yposition Zposition Zrotation Xrotation Yrotation
                  JOINT Character1_LeftHandPinky2
                  {
                    OFFSET 0.289756 -0.353117 -0.0298241
                    CHANNELS 6 Xposition Yposition Zposition Zrotation Xrotation Yrotation
                    JOINT Character1_LeftHandPinky3
                    {
                      OFFSET 0.271226 -0.36969 -0.0280323
                      CHANNELS 6 Xposition Yposition Zposition Zrotation Xrotation Yrotation
                      JOINT Character1_LeftHandPinky4
                      {
                        OFFSET 0.192971 -0.263027 -0.0199442
                        CHANNELS 6 Xposition Yposition Zposition Zrotation Xrotation Yrotation
                        End Site
                        {
                          OFFSET 0 0 0
                        }
                      }
                    }
                  }
                }
              }
            }
          }
        }
        JOINT Character1_RightShoulder
        {
          OFFSET -1.05263 2.25701 0
          CHANNELS 6 Xposition Yposition Zposition Zrotation Xrotation Yrotation
          JOINT Character1_RightArm
          {
            OFFSET -1.59242 -0.163551 -0.172859
            CHANNELS 6 Xposition Yposition Zposition Zrotation Xrotation Yrotation
            JOINT Character1_RightForeArm
            {
              OFFSET -4.24525 -1.87824 -0.325582
              CHANNELS 6 Xposition Yposition Zposition Zrotation Xrotation Yrotation
              JOINT Character1_RightHand
              {
                OFFSET -2.98615 -1.30581 0.326124
                CHANNELS 6 Xposition Yposition Zposition Zrotation Xrotation Yrotation
                JOINT Character1_RightHandThumb1
                {
                  OFFSET -0.707168 -0.296375 0.777353
                  CHANNELS 6 Xposition Yposition Zposition Zrotation Xrotation Yrotation
                  JOINT Character1_RightHandThumb2
                  {
                    OFFSET -0.248522 -0.159517 0.331579
                    CHANNELS 6 Xposition Yposition Zposition Zrotation Xrotation Yrotation
                    JOINT Character1_RightHandThumb3
                    {
                      OFFSET -0.259195 -0.254063 0.227961
                      CHANNELS 6 Xposition Yposition Zposition Zrotation Xrotation Yrotation
                      JOINT Character1_RightHandThumb4
                      {
                        OFFSET -0.226667 -0.258211 0.206782
                        CHANNELS 6 Xposition Yposition Zposition Zrotation Xrotation Yrotation
                        End Site
                        {
                          OFFSET 0 0 0
                        }
                      }
                    }
                  }
                }
                JOINT Character1_RightHandIndex1
                {
                  OFFSET -1.48444 -0.354191 0.611987
                  CHANNELS 6 Xposition Yposition Zposition Zrotation Xrotation Yrotation
                  JOINT Character1_RightHandIndex2
                  {
                    OFFSET -0.504724 -0.451986 0.0493909
                    CHANNELS 6 Xposition Yposition Zposition Zrotation Xrotation Yrotation
                    JOINT Character1_RightHandIndex3
                    {
                      OFFSET -0.296442 -0.265512 0.0299124
                      CHANNELS 6 Xposition Yposition Zposition Zrotation Xrotation Yrotation
                      JOINT Character1_RightHandIndex4
                      {
                        OFFSET -0.197651 -0.217279 0.0208598
                        CHANNELS 6 Xposition Yposition Zposition Zrotation Xrotation Yrotation
                        End Site
                        {
                          OFFSET 0 0 0
                        }
                      }
                    }
                  }
                }
                JOINT Character1_RightHandMiddle1
                {
                  OFFSET -1.48537 -0.317029 0.212679
                  CHANNELS 6 Xposition Yposition Zposition Zrotation Xrotation Yrotation
                  JOINT Character1_RightHandMiddle2
                  {
                    OFFSET -0.672061 -0.620937 0.0176348
                    CHANNELS 6 Xposition Yposition Zposition Zrotation Xrotation Yrotation
                    JOINT Character1_RightHandMiddle3
                    {
                      OFFSET -0.264032 -0.32112 0.0088428
                      CHANNELS 6 Xposition Yposition Zposition Zrotation Xrotation Yrotation
                      JOINT Character1_RightHandMiddle4
                      {
                        OFFSET -0.180854 -0.241264 0.00658403
                        CHANNELS 6 Xposition Yposition Zposition Zrotation Xrotation Yrotation
                        End Site
                        {
                          OFFSET 0 0 0
                        }
                      }
                    }
                  }
                }
                JOINT Character1_RightHandRing1
                {
                  OFFSET -1.48599 -0.345214 -0.172738
                  CHANNELS 6 Xposition Yposition Zposition Zrotation Xrotation Yrotation
                  JOINT Character1_RightHandRing2
                  {
                    OFFSET -0.522199 -0.611355 0.0123873
                    CHANNELS 6 Xposition Yposition Zposition Zrotation Xrotation Yrotation
                    JOINT Character1_RightHandRing3
                    {
                      OFFSET -0.273489 -0.359549 0.00739125
                      CHANNELS 6 Xposition Yposition Zposition Zrotation Xrotation Yrotation
                      JOINT Character1_RightHandRing4
                      {
                        OFFSET -0.175076 -0.230165 0.0047312
                        CHANNELS 6 Xposition Yposition Zposition Zrotation Xrotation Yrotation
                        End Site
                        {
                          OFFSET 0 0 0
                        }
                      }
                    }
                  }
                }
                JOINT Character1_RightHandPinky1
                {
                  OFFSET -1.45006 -0.450851 -0.482263
                  CHANNELS 6 Xposition Yposition Zposition Zrotation Xrotation Yrotation
                  JOINT Character1_RightHandPinky2
                  {
                    OFFSET -0.289757 -0.353119 -0.0298237
                    CHANNELS 6 Xposition Yposition Zposition Zrotation Xrotation Yrotation
                    JOINT Character1_RightHandPinky3
                    {
                      OFFSET -0.271225 -0.36969 -0.0280317
                      CHANNELS 6 Xposition Yposition Zposition Zrotation Xrotation Yrotation
                      JOINT Character1_RightHandPinky4
                      {
                        OFFSET -0.192971 -0.263025 -0.0199442
                        CHANNELS 6 Xposition Yposition Zposition Zrotation Xrotation Yrotation
                        End Site
                        {
                          OFFSET 0 0 0
                        }
                      }
                    }
                  }
                }
              }
            }
          }
        }
        JOINT Character1_Neck
        {
          OFFSET 0 2.01813 0
          CHANNELS 6 Xposition Yposition Zposition Zrotation Xrotation Yrotation
          JOINT Character1_Head
          {
            OFFSET 0 3.0075 0
            CHANNELS 6 Xposition Yposition Zposition Zrotation Xrotation Yrotation
            End Site
            {
              OFFSET 0 0 0
            }
          }
        }
      }
    }
  }
}
MOTION
Frames:	2
Frame Time:	0.0166667
-0.000140061 14.3556 0.0676852 -0.0478789 2.68941 -8.64027 1.33984 -0.942852 -1.30949e-007 0.755668 -38.1907 -4.43697 1.03111 -5.48942 0.514163 2.42173 30.6224 7.27787 0.584473 -7.37543 -1.61389 -12.2315 12.2749 4.90663 0.308452 -0.815752 3.43202 -3.26106e-005 1.01266e-006 1.12758e-005 -1.33984 -0.94285 2.59904e-007 -10.3481 5.21177 3.53062 -1.03111 -5.48942 0.514162 12.7184 57.8258 -0.86556 -0.584472 -7.37543 -1.61389 -7.02513 7.33488 1.38177 -0.308452 -0.815752 3.43202 -1.8951e-013 1.94601e-005 9.85427e-013 -5.69155e-008 1.05262 -6.44777e-007 -1.57503 2.8125 9.88425 7.96567e-009 2.01813 -3.06354e-008 -0.669542 9.39436 2.54738 -2.24241e-008 2.01813 -2.1533e-007 -0.283166 9.40855 2.4918 1.05262 2.25701 -5.41056e-007 -0.55704 -0.0663013 -0.0598328 1.59242 -0.163555 -0.172859 -41.5491 12.2945 34.575 4.24522 -1.87831 -0.325626 -9.37585 0.482162 -51.3293 2.98614 -1.30584 0.326129 -0.654023 -9.52027 4.11245 0.707166 -0.296377 0.777353 0.000162035 -1.45678e-005 -6.55612e-006 0.248522 -0.159516 0.331579 -4.13901e-005 2.19667e-005 -2.17442e-006 0.259194 -0.25406 0.227961 -4.53586e-005 -1.00468e-006 9.20986e-006 0.226667 -0.258213 0.206783 -2.7573e-005 4.28653e-006 -6.41832e-006 1.48444 -0.354188 0.611986 0.000162035 -1.45678e-005 -6.55612e-006 0.504725 -0.451988 0.0493914 -4.13901e-005 2.19667e-005 -2.17442e-006 0.296443 -0.265513 0.0299127 -4.53586e-005 -1.00468e-006 9.20986e-006 0.197651 -0.217277 0.0208595 -2.7573e-005 4.28653e-006 -6.41832e-006 1.48537 -0.317031 0.212679 0.000162035 -1.45678e-005 -6.55612e-006 0.672059 -0.620935 0.0176347 -4.13901e-005 2.19667e-005 -2.17442e-006 0.264033 -0.321119 0.00884258 -4.53586e-005 -1.00468e-006 9.20986e-006 0.180854 -0.241264 0.00658435 -2.7573e-005 4.28653e-006 -6.41832e-006 1.48599 -0.345214 -0.172738 0.000162035 -1.45678e-005 -6.55612e-006 0.522196 -0.611354 0.0123871 -4.13901e-005 2.19667e-005 -2.17442e-006 0.273492 -0.359549 0.00739145 -4.53586e-005 -1.00468e-006 9.20986e-006 0.175075 -0.230163 0.00473085 -2.7573e-005 4.28653e-006 -6.41832e-006 1.45006 -0.450851 -0.482263 0.000162035 -1.45678e-005 -6.55612e-006 0.289756 -0.353117 -0.0298234 -4.13901e-005 2.19667e-005 -2.17442e-006 0.271225 -0.36969 -0.0280321 -4.53586e-005 -1.00468e-006 9.20986e-006 0.192971 -0.263027 -0.0199443 -2.7573e-005 4.28653e-006 -6.41832e-006 -1.05263 2.25701 -9.01141e-007 -1.97116e-007 2.91855e-006 5.04562e-006 -1.59242 -0.163552 -0.172858 36.7787 4.29471 29.544 -4.24536 -1.87801 -0.325417 15.6878 -33.0786 78.972 -2.98612 -1.30588 0.326132 0.73879 -12.4313 -5.36691 -0.707168 -0.296376 0.777352 -3.30595e-005 7.94035e-006 -4.17182e-005 -0.248522 -0.159517 0.33158 0.000156482 1.61694e-005 7.30945e-006 -0.259194 -0.254063 0.227962 -0.000172723 3.10805e-005 -2.39327e-005 -0.226668 -0.258212 0.206781 -2.29367e-005 -2.59315e-006 2.29471e-005 -1.48444 -0.354191 0.611987 -3.30595e-005 7.94035e-006 -4.17182e-005 -0.504725 -0.451987 0.0493898 0.000156482 1.61694e-005 7.30945e-006 -0.296442 -0.265512 0.0299133 -0.000172723 3.10805e-005 -2.39327e-005 -0.197651 -0.21728 0.0208586 -2.29367e-005 -2.59315e-006 2.29471e-005 -1.48537 -0.317031 0.212678 -3.30595e-005 7.94035e-006 -4.17182e-005 -0.67206 -0.620937 0.0176354 0.000156482 1.61694e-005 7.30945e-006 -0.264031 -0.321119 0.00884288 -0.000172723 3.10805e-005 -2.39327e-005 -0.180854 -0.241265 0.00658276 -2.29367e-005 -2.59315e-006 2.29471e-005 -1.48599 -0.345215 -0.172739 -3.30595e-005 7.94035e-006 -4.17182e-005 -0.522198 -0.611355 0.0123882 0.000156482 1.61694e-005 7.30945e-006 -0.273489 -0.359549 0.00739026 -0.000172723 3.10805e-005 -2.39327e-005 -0.175077 -0.230165 0.00473152 -2.29367e-005 -2.59315e-006 2.29471e-005 -1.45006 -0.450852 -0.482264 -3.30595e-005 7.94035e-006 -4.17182e-005 -0.289757 -0.353119 -0.0298236 0.000156482 1.61694e-005 7.30945e-006 -0.271225 -0.36969 -0.0280327 -0.000172723 3.10805e-005 -2.39327e-005 -0.192971 -0.263025 -0.0199439 -2.29367e-005 -2.59315e-006 2.29471e-005 -4.30098e-008 2.01813 -6.44186e-007 -1.69296 -9.40526 -5.19579 1.73897e-007 3.0075 3.90066e-007 -0.84997 -9.51738 -5.12708 
-0.0024216 14.3392 0.0658902 0.0705405 2.65731 -8.36935 1.33984 -0.942851 -1.30951e-007 0.606286 -38.7866 -4.69098 1.03111 -5.48942 0.514161 2.08333 31.6085 7.42327 0.584472 -7.37543 -1.61389 -11.5709 12.9214 4.80042 0.308452 -0.815753 3.43202 -3.2611e-005 5.91072e-007 1.12757e-005 -1.33984 -0.94285 2.59867e-007 -10.2625 4.89639 3.42217 -1.03111 -5.48942 0.514162 12.7991 58.3379 -1.25379 -0.584472 -7.37543 -1.61388 -6.86275 4.35768 1.40101 -0.308452 -0.815749 3.43202 -1.89786e-013 1.71754e-005 9.8455e-013 -5.69114e-008 1.05262 -6.27467e-007 -1.65692 2.8113 9.56644 7.96431e-009 2.01813 -3.06285e-008 -0.647572 9.41001 2.4626 -2.24266e-008 2.01813 2.67843e-007 -0.274049 9.42346 2.40883 1.05262 2.25701 -5.00308e-007 -0.55704 -0.0663011 -0.0598328 1.59242 -0.163555 -0.172859 -41.0098 12.1113 31.8614 4.24522 -1.87829 -0.325611 -8.80242 -1.35877 -52.8079 2.98615 -1.30583 0.326122 -0.662235 -9.76396 4.21747 0.707166 -0.296378 0.777353 0.000160098 -1.40068e-005 -6.55549e-006 0.248522 -0.159516 0.33158 -4.6492e-005 2.17609e-005 -2.12047e-006 0.259194 -0.254061 0.227961 -3.20811e-005 -1.00468e-006 9.21017e-006 0.226666 -0.258213 0.206783 -2.76451e-005 4.07459e-006 -6.38174e-006 1.48444 -0.354188 0.611986 0.000160098 -1.40068e-005 -6.55549e-006 0.504725 -0.451988 0.0493914 -4.6492e-005 2.17609e-005 -2.12047e-006 0.296442 -0.265513 0.0299127 -3.20811e-005 -1.00468e-006 9.21017e-006 0.197651 -0.217278 0.0208595 -2.76451e-005 4.07459e-006 -6.38174e-006 1.48537 -0.317032 0.212679 0.000160098 -1.40068e-005 -6.55549e-006 0.67206 -0.620936 0.0176347 -4.6492e-005 2.17609e-005 -2.12047e-006 0.264032 -0.321119 0.00884258 -3.20811e-005 -1.00468e-006 9.21017e-006 0.180854 -0.241265 0.00658434 -2.76451e-005 4.07459e-006 -6.38174e-006 1.48599 -0.345215 -0.172738 0.000160098 -1.40068e-005 -6.55549e-006 0.522197 -0.611354 0.0123871 -4.6492e-005 2.17609e-005 -2.12047e-006 0.273491 -0.359548 0.00739145 -3.20811e-005 -1.00468e-006 9.21017e-006 0.175075 -0.230163 0.00473114 -2.76451e-005 4.07459e-006 -6.38174e-006 1.45006 -0.450851 -0.482263 0.000160098 -1.40068e-005 -6.55549e-006 0.289756 -0.353117 -0.0298234 -4.6492e-005 2.17609e-005 -2.12047e-006 0.271225 -0.36969 -0.0280321 -3.20811e-005 -1.00468e-006 9.21017e-006 0.192971 -0.263027 -0.0199437 -2.76451e-005 4.07459e-006 -6.38174e-006 -1.05263 2.257 1.8938e-007 -1.97005e-007 2.94325e-006 5.04502e-006 -1.59242 -0.16355 -0.172859 36.7144 4.66797 26.9329 -4.24537 -1.87801 -0.325387 15.7481 -32.1407 77.3383 -2.98613 -1.30587 0.326138 0.719766 -11.4835 -4.9579 -0.707169 -0.296376 0.777353 -3.2696e-005 3.75759e-005 -4.09905e-005 -0.248522 -0.159517 0.33158 0.000138922 1.6104e-005 7.29823e-006 -0.259195 -0.254063 0.227961 -0.000171941 3.08733e-005 -2.43523e-005 -0.226667 -0.258211 0.206782 -2.5981e-005 -2.61853e-006 2.29471e-005 -1.48445 -0.354191 0.611987 -3.2696e-005 3.75759e-005 -4.09905e-005 -0.504725 -0.451987 0.0493912 0.000138922 1.6104e-005 7.29823e-006 -0.296442 -0.265513 0.0299128 -0.000171941 3.08733e-005 -2.43523e-005 -0.197651 -0.21728 0.0208603 -2.5981e-005 -2.61853e-006 2.29471e-005 -1.48537 -0.31703 0.212678 -3.2696e-005 3.75759e-005 -4.09905e-005 -0.67206 -0.620937 0.0176349 0.000138922 1.6104e-005 7.29823e-006 -0.264031 -0.321119 0.0088427 -0.000171941 3.08733e-005 -2.43523e-005 -0.180854 -0.241265 0.0065843 -2.5981e-005 -2.61853e-006 2.29471e-005 -1.48599 -0.345215 -0.172739 -3.2696e-005 3.75759e-005 -4.09905e-005 -0.522198 -0.611355 0.0123873 0.000138922 1.6104e-005 7.29823e-006 -0.273489 -0.359549 0.00739134 -0.000171941 3.08733e-005 -2.43523e-005 -0.175077 -0.230165 0.0047316 -2.5981e-005 -2.61853e-006 2.29471e-005 -1.45006 -0.450852 -0.482265 -3.2696e-005 3.75759e-005 -4.09905e-005 -0.289757 -0.353119 -0.0298237 0.000138922 1.6104e-005 7.29823e-006 -0.271225 -0.36969 -0.0280324 -0.000171941 3.08733e-005 -2.43523e-005 -0.192971 -0.263025 -0.0199442 -2.5981e-005 -2.61853e-006 2.29471e-005 -4.30257e-008 2.01813 -3.15395e-007 -1.63703 -9.4176 -5.02283 1.73894e-007 3.0075 4.16432e-007 -0.821929 -9.52475 -4.95628 
